Coordinates
version=1
nRows=13
nColumns=22
inDegrees=yes

Units are S.I. units (second, meters, Newtons, ...)
If the header above contains a line with 'inDegrees', this indicates whether rotational values are in degrees (yes) or radians (no).

endheader
time	pelvis_tilt	pelvis_list	pelvis_rotation	pelvis_tx	pelvis_ty	pelvis_tz	hip_flexion_r	hip_adduction_r	hip_rotation_r	knee_angle_r	ankle_angle_r	subtalar_angle_r	hip_flexion_l	hip_adduction_l	hip_rotation_l	knee_angle_l	ankle_angle_l	subtalar_angle_l	lumbar_extension	lumbar_bending	lumbar_rotation
      3.44000000	     -4.69220145	      4.88728922	     27.51183099	     -0.07211114	      0.90784116	     -0.42002063	     -3.41100084	      1.37728993	      1.95004991	    -45.63529931	    -12.43890867	     -4.26937251	     21.05772187	      3.83738570	     13.23882566	    -24.85747171	      7.62289754	      9.52981775	     -4.60251134	    -12.32806987	     -0.48281518
      3.45000000	     -4.85807357	      4.99785733	     26.18864817	     -0.06566458	      0.90886751	     -0.42234208	     -1.11137345	      0.09805989	      0.05128550	    -49.00082121	    -14.18344304	     -3.80003013	     20.54120217	      3.69070120	     12.14264823	    -24.73970780	      7.91512805	      9.06164997	     -4.72905355	    -12.36741365	     -0.72822380
      3.46000000	     -5.03273703	      5.09798019	     24.82773057	     -0.05941308	      0.90972631	     -0.42448446	      1.28551109	     -1.17804133	     -1.53658272	    -52.31975679	    -15.45038388	     -3.27413563	     20.09964151	      3.55211987	     11.03034839	    -24.70242291	      8.24127472	      8.62009867	     -4.84950374	    -12.37532271	     -0.97137184
      3.47000000	     -5.19314050	      5.21389319	     23.44424116	     -0.05328759	      0.91048337	     -0.42643786	      3.71360154	     -2.40761617	     -2.80883285	    -55.52472583	    -16.09681790	     -2.70423214	     19.68570473	      3.42932350	      9.89027786	    -24.72492401	      8.52882752	      8.23918812	     -4.99754827	    -12.38291910	     -1.21817112
      3.48000000	     -5.33544832	      5.32006518	     22.05602324	     -0.04720968	      0.91113843	     -0.42818178	      6.15738776	     -3.49660547	     -3.76004497	    -58.56191196	    -16.09960466	     -2.13443634	     19.28601208	      3.29678522	      8.75923415	    -24.78280162	      8.87939439	      7.85606448	     -5.15208399	    -12.37266667	     -1.49480697
      3.49000000	     -5.41754546	      5.44782868	     20.66524480	     -0.04110142	      0.91182809	     -0.42968298	      8.53038323	     -4.43209446	     -4.44336634	    -61.36311623	    -15.47372280	     -1.73840792	     18.82085700	      3.15703715	      7.59395360	    -24.83032566	      9.14431425	      7.52801630	     -5.37072690	    -12.37414626	     -1.81351765
      3.50000000	     -5.43073407	      5.56067360	     19.30063542	     -0.03492544	      0.91256016	     -0.43096838	     10.81000847	     -5.15922589	     -4.93371048	    -63.88230524	    -14.35467702	     -1.54634425	     18.28267743	      2.99043907	      6.47254342	    -24.85762725	      9.46104717	      7.19879429	     -5.63937362	    -12.35253628	     -2.15778789
      3.51000000	     -5.34628238	      5.65105393	     17.96965832	     -0.02862542	      0.91342392	     -0.43202438	     12.93550173	     -5.65222930	     -5.27906021	    -66.07011121	    -12.87658683	     -1.58220709	     17.62241437	      2.78001137	      5.39203511	    -24.83048049	      9.76945525	      6.88996988	     -5.98330639	    -12.29591511	     -2.56154200
      3.52000000	     -5.17908443	      5.70530751	     16.69777836	     -0.02229174	      0.91439004	     -0.43291365	     14.91376849	     -5.93577711	     -5.56298921	    -67.91563572	    -11.26830367	     -1.84526334	     16.89921802	      2.53478249	      4.36156496	    -24.81732633	     10.07867282	      6.52607775	     -6.39914128	    -12.19097067	     -3.01229780
      3.53000000	     -4.90850165	      5.71889540	     15.47298780	     -0.01583154	      0.91553442	     -0.43360532	     16.69245908	     -6.00099521	     -5.79769053	    -69.38786641	     -9.62756459	     -2.24644030	     16.04104908	      2.23904832	      3.39038318	    -24.73816594	     10.36919266	      6.16262797	     -6.89089943	    -12.03343299	     -3.52789159
      3.54000000	     -4.55526768	      5.68299712	     14.29508973	     -0.00929540	      0.91682312	     -0.43411496	     18.28886851	     -5.87153109	     -6.00817023	    -70.48882396	     -8.06884377	     -2.65676286	     15.07818265	      1.89545149	      2.47896584	    -24.60687113	     10.63352553	      5.82124558	     -7.43934938	    -11.82090470	     -4.08440381
      3.55000000	     -4.13693729	      5.60515665	     13.18175613	     -0.00277628	      0.91820173	     -0.43449653	     19.72045270	     -5.59821007	     -6.22706495	    -71.24138723	     -6.62887953	     -3.03334117	     14.05777884	      1.52646567	      1.64023030	    -24.47965253	     10.88025613	      5.46469336	     -8.04641422	    -11.55921146	     -4.70664261
      3.56000000	     -3.70306226	      5.47950141	     12.11230802	      0.00376020	      0.91960114	     -0.43474225	     21.03281504	     -5.20341934	     -6.44515581	    -71.64616805	     -5.29809141	     -3.22964892	     13.00029576	      1.13088721	      0.85271286	    -24.30349384	     11.09582385	      5.16804329	     -8.63540755	    -11.25744606	     -5.34470903
